/* XPM */
static char *blink[] = {
/* width height ncolors cpp x_hot y_hot ext */
"20 20 4 2 0 0 XPMEXT",
/* colors */
"   s back   c none",
"## s top          m black",
"@@ s border c red m black",
".. s plain        m white",
/* pixels */
"                @@@@@@@@                ",
"              @@@@....@@@@              ",
"              @@@@####@@@@              ",
"            @@@@..####..@@@@            ",
"            @@@@..####..@@@@            ",
"          @@@@....####....@@@@          ",
"          @@@@....####....@@@@          ",
"        @@@@......####......@@@@        ",
"        @@@@......####......@@@@        ",
"      @@@@........####........@@@@      ",
"      @@@@........####........@@@@      ",
"    @@@@..........####..........@@@@    ",
"    @@@@..........####..........@@@@    ",
"  @@@@............####............@@@@  ",
"  @@@@............................@@@@  ",
"@@@@................................@@@@",
"@@@@..............####..............@@@@",
"@@................####................@@",
"@@@@@@@@@@@@@@@@@@@@@@@@@@@@@@@@@@@@@@@@",
"@@@@@@@@@@@@@@@@@@@@@@@@@@@@@@@@@@@@@@@@",
/* extensions */
"XPMEXT bouledefeu-blink 5"
"XPMENDEXT"
};
