/* XPM */
static char * icl8_11432_xpm[] = {
/* width height ncolors chars_per_pixel */
"32 32 9 1",
/* colors */
"       s None  c None",
"o      c AntiqueWhite",
"O      c black",
"+      c gray4",
"@      c gray8",
"#      c orange",
"$      c yellow",
"%      c GhostWhite",
"&      c WhiteSmoke",
/* pixels */
"                                ",
"                                ",
"                                ",
"                                ",
"                                ",
"                                ",
"                                ",
"                                ",
"           oOoOo                ",
"          O     Oo              ",
"         o        O             ",
"         O        o             ",
"       +++++       O            ",
"       +@@@+       o            ",
"      +@@O@@+       O           ",
"    ++@OOO@O@++     o  #       $",
"   +@@OOOOOOO@@+    O      $  # ",
"  +@OOOOOOOOOOO@+    o  $       ",
"  +@OOOOOO%&oOO@+    O   #  $   ",
" +@OOOOOOOO%&oOO@+    o         ",
" +@OOOOOOOOOOOOO@+     OoO # $ #",
" +@OOOOOOOOO%&oO@+              ",
" +@OOOOOOOOO%&oO@+      $   $   ",
" +@OOOOOOOOO%&oO@+        #  #  ",
" +@OOOOOOOO%&oOO@+     #        ",
" +@OOOOOOOO%&oOO@+    $   $    $",
"  +@OOOOOO%&oOO@+               ",
"  +@OOOOOOOOOOO@+         #     ",
"   +@@OOOOOOO@@+                ",
"    ++@@@@@@@++                 ",
"      +++++++                   ",
"                                "};
